# xmcd
#
# Track frame offsets:
#	150
#	15157
#	26338
#	42931
#	55853
#	70214
#	88257
#	119834
#	144127
#	158473
#
# Disc length: 2250
#
# Revision: 1
# Processed by: cddbd v1.5.1PL0 Copyright (c) Steve Scherf et al.
# Submitted via: CDex 1.51
# Normalized: r0:TDELIM( - )
#
DISCID=7608c80a
DTITLE=Various Artist - Jazz Ballads at Midnight
DYEAR=2000
DGENRE=Jazz
TTITLE0=Jo Stafford - Begin The Beguine
TTITLE1=Kenny Drew - Stella By Starlight
TTITLE2=Clair Fischer - Quiet Nights
TTITLE3=Nancy Wilson - Fly Me To The Moon
TTITLE4=Ike Quebec - Loie
TTITLE5=The Three Sounds - Besame Mucho
TTITLE6=Jimmy Smith - Lover Man
TTITLE7=Kenny Burrell - Chittlins Con Carne
TTITLE8=Thelonious Monk - 'Round Midnight
TTITLE9=Annie Ross - All Of You
EXTD=YEAR: 2000
EXTT0=
EXTT1=
EXTT2=
EXTT3=
EXTT4=
EXTT5=
EXTT6=
EXTT7=
EXTT8=
EXTT9=
PLAYORDER=
